<svg width="64" height="64" viewBox="0 0 64 64" fill="none" xmlns="http://www.w3.org/2000/svg">
<g clip-path="url(#clip0_8_4)">
<path d="M29.9375 46.4375V54H11.0312V46.4375H29.9375ZM13.8438 8.5V54H4.6875V8.5H13.8438Z" fill="#1677FF"/>
<path d="M50.2812 39.9688V8.5H59.4062V40C59.4062 43.0208 58.8229 45.6354 57.6562 47.8438C56.5104 50.0312 54.9479 51.7083 52.9688 52.875C50.9896 54.0417 48.7604 54.625 46.2812 54.625C43.7396 54.625 41.4688 54.125 39.4688 53.125C37.4896 52.1042 35.9271 50.5625 34.7812 48.5C33.6354 46.4167 33.0625 43.7708 33.0625 40.5625H42.25C42.25 42.1875 42.4167 43.4688 42.75 44.4062C43.0833 45.3438 43.5521 46.0208 44.1562 46.4375C44.7812 46.8542 45.4896 47.0625 46.2812 47.0625C47.1354 47.0625 47.8542 46.7812 48.4375 46.2188C49.0417 45.6562 49.5 44.8542 49.8125 43.8125C50.125 42.75 50.2812 41.4688 50.2812 39.9688Z" fill="white"/>
</g>
<defs>
<clipPath id="clip0_8_4">
<rect width="64" height="64" fill="white"/>
</clipPath>
</defs>
</svg>
